<?xml version="1.0" standalone="no"?>
<!DOCTYPE svg PUBLIC "-//W3C//DTD SVG 20010904//EN"
 "http://www.w3.org/TR/2001/REC-SVG-20010904/DTD/svg10.dtd">
<svg version="1.0" xmlns="http://www.w3.org/2000/svg"
 width="260.000000pt" height="260.000000pt" viewBox="0 0 260.000000 260.000000"
 preserveAspectRatio="xMidYMid meet">
<metadata>
Created by potrace 1.11, written by Peter Selinger 2001-2013
</metadata>
<g transform="translate(0.000000,260.000000) scale(0.100000,-0.100000)"
fill="#000000" stroke="none">
<path d="M140 1255 l0 -525 135 0 135 0 2 289 3 289 102 -182 101 -181 107 0
107 0 101 182 102 181 3 -289 2 -289 135 0 135 0 0 525 0 525 -142 0 -143 0
-147 -273 c-81 -149 -150 -271 -154 -270 -4 1 -73 123 -153 272 l-146 271
-142 0 -143 0 0 -525z"/>
<path d="M1490 1255 l0 -526 373 3 373 3 60 30 c51 27 62 38 89 90 27 52 30
68 30 149 0 52 -6 108 -14 130 -17 48 -81 119 -122 136 l-30 13 42 35 c58 50
79 100 79 193 0 128 -38 199 -130 243 -43 20 -63 21 -397 24 l-353 3 0 -526z
m588 295 c41 -38 40 -132 -1 -170 -19 -18 -36 -20 -169 -20 l-148 0 0 105 0
105 148 0 c134 0 150 -2 170 -20z m47 -425 c21 -20 25 -34 25 -80 0 -46 -4
-60 -25 -80 -24 -25 -27 -25 -195 -25 l-170 0 0 105 0 105 170 0 c168 0 171 0
195 -25z"/>
</g>
</svg>
